<svg xmlns="http://www.w3.org/2000/svg" width="414" height="415"><defs><clipPath id="a"><path d="M0 0h414v415H0z"/></clipPath></defs><g clip-path="url(#a)"><path fill="#e6ecf6" d="M0 0h414v415H0z"/><path d="M193.117 86.347a41.653 41.653 0 00-8.258.826 34.058 34.058 0 00-47.7-24.214 45.459 45.459 0 00-85.458 31.026 37.9 37.9 0 001.139 75.772h140.28a41.705 41.705 0 100-83.41zm0 0" fill="#fff"/><path data-name="cloud" d="M260.076 79.668a36.5 36.5 0 00-7.236.723 29.843 29.843 0 00-41.8-21.218 39.834 39.834 0 00-74.883 27.188 33.206 33.206 0 001 66.4h122.919a36.544 36.544 0 100-73.088zm0 0" fill="#fff" opacity=".52"/><path data-name="cloud" d="M344.514 193.583a26.222 26.222 0 015.2.52 21.441 21.441 0 0130.027-15.244 28.618 28.618 0 0153.8 19.532 23.856 23.856 0 01-.717 47.7h-88.31a26.255 26.255 0 110-52.509zm-363.753 61.602a33.719 33.719 0 016.685.668 27.571 27.571 0 0138.613-19.6 36.8 36.8 0 1169.183 25.115 30.677 30.677 0 01-.922 61.339H-19.239a33.761 33.761 0 110-67.522zm0 0" fill="#fff"/></g></svg>