<svg xmlns="http://www.w3.org/2000/svg" width="414" height="415"><defs><clipPath id="a"><path d="M0 0h414v415H0z"/></clipPath></defs><g clip-path="url(#a)"><path fill="#243046" d="M0 0h414v415H0z"/><path d="M198.117 244.347a41.653 41.653 0 00-8.258.826 34.058 34.058 0 00-47.7-24.214 45.459 45.459 0 00-85.458 31.026 37.9 37.9 0 001.139 75.772h140.28a41.705 41.705 0 100-83.41zm0 0" fill="#fff" opacity=".06"/><path data-name="cloud" d="M235.766 120.795a28.73 28.73 0 015.7.569 23.491 23.491 0 0132.9-16.7 31.355 31.355 0 1158.946 21.4 26.138 26.138 0 01-.785 52.263h-96.761a28.766 28.766 0 110-57.531zm0 0" fill="#fff" opacity=".04"/><path data-name="Path 1" d="M308.37 101.175a48.813 48.813 0 0037.4-80.2A54.671 54.671 0 11277 89.741a48.612 48.612 0 0031.37 11.434z" fill="#ffeb98"/><path data-name="Path 2" d="M362.841 30.107a54.619 54.619 0 01-76.7 76.7 54.628 54.628 0 1076.7-76.7z" fill="#efcf6e"/><path data-name="cloud" d="M321.401 122.672a34.1 34.1 0 016.761.676 27.881 27.881 0 0139.049-19.823 37.215 37.215 0 0169.962 25.4 31.023 31.023 0 01-.932 62.03h-114.84a34.142 34.142 0 110-68.283zm0 0" fill="#333e53"/><path data-name="cloud" d="M72.216 58.203a29.048 29.048 0 00-5.759.576 23.751 23.751 0 00-33.265-16.887 31.703 31.703 0 00-59.6 21.638 26.428 26.428 0 00.794 52.842h97.829a29.084 29.084 0 100-58.169zm0 0" fill="#fff" opacity=".06"/><g data-name="Group 1"><path data-name="Path 4" d="M179.109 114.832l.459.93 1.027.149-.743.724.176 1.022-.918-.482-.918.482.176-1.022-.743-.724 1.027-.149z" fill="#fff6d2" opacity=".92"/></g><g data-name="Group 2"><path data-name="Path 4" d="M250.109 82.832l.459.93 1.027.149-.743.724.176 1.022-.918-.482-.918.482.176-1.022-.743-.724 1.027-.149z" fill="#fff6d2" opacity=".51"/></g><g data-name="Group 4"><path data-name="Path 4" d="M44.109 135.832l.459.93 1.027.149-.743.724.176 1.022-.918-.482-.918.482.176-1.022-.743-.724 1.027-.149z" fill="#fff6d2" opacity=".26"/></g><g data-name="Group 6"><path data-name="Path 4" d="M44.109 15.832l.459.93 1.027.149-.743.724.176 1.022-.918-.482-.918.482.176-1.022-.743-.724 1.027-.149z" fill="#fff6d2" opacity=".92"/></g><g data-name="Group 7" opacity=".92"><path data-name="Path 4" d="M231.109 24.832l.459.93 1.027.149-.743.724.176 1.022-.918-.482-.918.482.176-1.022-.743-.724 1.027-.149z" fill="#fff6d2" opacity=".45"/></g><g data-name="Group 9"><path data-name="Path 4" d="M164.109 185.832l.459.93 1.027.149-.743.724.176 1.022-.918-.482-.918.482.176-1.022-.743-.724 1.027-.149z" fill="#fff6d2" opacity=".48"/></g><g data-name="Group 10"><path data-name="Path 4" d="M264.109 245.832l.459.93 1.027.149-.743.724.176 1.022-.918-.482-.918.482.176-1.022-.743-.724 1.027-.149z" fill="#fff6d2" opacity=".92"/></g><g data-name="Group 11"><path data-name="Path 4" d="M304.109 195.832l.459.93 1.027.149-.743.724.176 1.022-.918-.482-.918.482.176-1.022-.743-.724 1.027-.149z" fill="#fff6d2" opacity=".46"/></g><g data-name="Group 13"><path data-name="Path 4" d="M384.109 315.832l.459.93 1.027.149-.743.724.176 1.022-.918-.482-.918.482.176-1.022-.743-.724 1.027-.149z" fill="#fff6d2" opacity=".92"/></g><g data-name="Group 14"><path data-name="Path 4" d="M264.109 375.832l.459.93 1.027.149-.743.724.176 1.022-.918-.482-.918.482.176-1.022-.743-.724 1.027-.149z" fill="#fff6d2" opacity=".92"/></g><g data-name="Group 15"><path data-name="Path 4" d="M84.109 355.832l.459.93 1.027.149-.743.724.176 1.022-.918-.482-.918.482.176-1.022-.743-.724 1.027-.149z" fill="#fff6d2" opacity=".92"/></g></g></svg>